<svg xmlns="http://www.w3.org/2000/svg" viewBox="0 0 32 32" width="64" height="64"><path fill="#192025" d="M6 0h1v1h-1zM14 0h2v1h-2zM20 0h1v1h-1zM23 0h1v1h-1zM7 2h1v1h-1zM8 4h1v1h-1zM29 10h2v1h-2zM29 11h1v1h-1zM14 12h1v1h-1zM29 12h1v1h-1zM29 13h1v1h-1zM21 14h1v1h-1zM29 14h1v1h-1zM18 16h1v1h-1zM28 20h1v1h-1zM5 21h1v1h-1zM5 22h1v1h-1zM27 22h1v1h-1zM5 23h1v1h-1zM26 29h1v1h-1zM12 31h1v1h-1z"/><path fill="#145b8f" d="M7 0h2v1h-2zM7 1h1v1h-1zM9 1h1v1h-1zM8 3h1v1h-1zM10 3h1v1h-1zM9 4h2v1h-2zM0 9h1v1h-1zM0 10h1v1h-1zM3 10h1v1h-1zM31 10h1v1h-1zM3 11h1v1h-1zM6 16h1v1h-1zM25 27h1v1h-1zM26 28h1v1h-1zM19 29h1v1h-1zM19 30h1v1h-1zM20 31h1v1h-1z"/><path fill="#25455f" d="M9 0h1v1h-1zM19 0h1v1h-1zM28 2h1v1h-1zM0 8h1v1h-1zM2 9h1v1h-1zM30 9h2v1h-2zM4 10h1v1h-1zM2 11h1v1h-1zM26 13h1v1h-1zM0 16h3v1h-3zM29 20h1v1h-1zM21 21h1v1h-1zM26 22h1v1h-1zM13 23h1v1h-1zM29 23h2v1h-2zM31 24h1v1h-1zM24 26h1v1h-1zM19 28h1v1h-1zM28 29h1v1h-1zM20 30h1v1h-1zM19 31h1v1h-1z"/><path fill="#8a1325" d="M10 0h1v1h-1zM16 0h1v1h-1zM22 0h1v1h-1zM10 1h1v1h-1zM17 2h1v1h-1zM16 3h1v1h-1zM11 4h2v1h-2zM19 7h1v1h-1zM31 8h1v1h-1zM3 9h1v1h-1zM0 11h1v1h-1zM31 12h1v1h-1zM1 15h1v1h-1zM2 18h1v1h-1zM31 20h1v1h-1zM0 21h1v1h-1zM0 22h1v1h-1zM25 24h1v1h-1zM16 31h1v1h-1zM18 31h1v1h-1zM21 31h1v1h-1z"/><path fill="#c4161d" d="M11 0h1v1h-1zM13 0h1v1h-1zM17 0h1v1h-1zM3 2h1v1h-1zM4 3h1v1h-1zM11 3h1v1h-1zM0 6h1v1h-1zM0 12h1v1h-1zM2 17h1v1h-1zM0 19h2v1h-2zM31 21h1v1h-1zM29 22h1v1h-1zM31 22h1v1h-1zM26 23h1v1h-1zM29 24h1v1h-1zM25 25h1v1h-1zM17 31h1v1h-1zM22 31h1v1h-1zM25 31h1v1h-1z"/><path fill="#b21725" d="M12 0h1v1h-1zM5 4h1v1h-1zM2 12h1v1h-1zM0 13h1v1h-1zM0 18h1v1h-1zM27 23h1v1h-1zM23 31h2v1h-2z"/><path fill="#5d1225" d="M18 0h1v1h-1zM4 2h1v1h-1zM7 3h1v1h-1zM20 5h1v1h-1zM31 11h1v1h-1zM0 15h1v1h-1zM8 21h1v1h-1zM12 23h1v1h-1zM31 23h1v1h-1zM0 24h1v1h-1zM20 27h1v1h-1zM4 29h1v1h-1zM25 29h1v1h-1zM11 30h1v1h-1zM18 30h1v1h-1zM26 30h1v1h-1zM15 31h1v1h-1z"/><path fill="#a90d1d" d="M21 0h1v1h-1zM6 2h1v1h-1zM7 4h1v1h-1zM6 6h1v1h-1zM0 7h1v1h-1zM5 8h1v1h-1zM31 13h1v1h-1zM0 14h2v1h-2zM0 17h1v1h-1zM0 20h1v1h-1zM29 21h1v1h-1zM0 23h1v1h-1zM31 25h1v1h-1zM11 31h1v1h-1z"/><path fill="#666769" d="M24 0h1v1h-1zM25 5h1v1h-1zM17 6h2v1h-2zM6 7h1v1h-1zM14 7h1v1h-1zM17 7h1v1h-1zM8 9h1v1h-1zM30 11h1v1h-1zM26 14h1v1h-1zM31 19h1v1h-1zM27 20h1v1h-1zM30 20h1v1h-1zM17 21h1v1h-1zM22 21h1v1h-1zM27 21h1v1h-1zM6 24h1v1h-1zM7 25h1v1h-1zM13 26h1v1h-1zM21 27h2v1h-2zM5 28h1v1h-1zM3 29h1v1h-1zM5 29h1v1h-1z"/><path fill="#8092aa" d="M25 0h1v1h-1zM14 3h1v1h-1zM18 4h1v1h-1zM20 4h1v1h-1zM17 5h1v1h-1zM22 5h1v1h-1zM7 8h1v1h-1zM30 12h1v1h-1zM31 15h1v1h-1zM24 17h1v1h-1zM31 17h1v1h-1zM30 18h1v1h-1zM26 21h1v1h-1zM1 22h1v1h-1zM2 23h1v1h-1zM4 25h1v1h-1zM6 25h1v1h-1zM13 27h1v1h-1zM7 29h1v1h-1zM10 30h1v1h-1zM7 31h1v1h-1zM9 31h1v1h-1z"/><path fill="#f11d26" d="M4 1h2v1h-2zM12 1h1v1h-1zM5 2h1v1h-1zM12 2h1v1h-1zM2 3h1v1h-1zM6 3h1v1h-1zM2 4h2v1h-2zM2 5h4v1h-4zM1 6h4v1h-4zM2 7h3v1h-3zM1 13h1v1h-1zM26 25h3v1h-3zM27 26h4v1h-4zM28 27h2v1h-2zM29 28h1v1h-1zM22 29h2v1h-2zM23 30h1v1h-1z"/><path fill="#10090d" d="M6 1h1v1h-1zM21 11h1v1h-1zM26 11h1v1h-1zM21 12h1v1h-1zM26 12h1v1h-1zM13 13h1v1h-1zM25 13h1v1h-1zM25 14h1v1h-1zM10 15h1v1h-1zM24 15h1v1h-1zM28 15h1v1h-1zM10 16h1v1h-1zM12 16h1v1h-1zM23 16h1v1h-1zM9 17h1v1h-1zM12 17h1v1h-1zM18 17h1v1h-1zM21 17h1v1h-1zM8 18h1v1h-1zM18 18h1v1h-1zM21 18h1v1h-1zM29 18h1v1h-1zM7 19h1v1h-1zM21 19h1v1h-1zM29 19h1v1h-1zM6 20h1v1h-1zM17 20h1v1h-1zM16 21h1v1h-1zM20 21h1v1h-1zM15 22h2v1h-2zM5 24h1v1h-1z"/><path fill="#3578a8" d="M8 1h1v1h-1zM8 2h2v1h-2zM9 3h1v1h-1zM1 9h1v1h-1zM1 10h2v1h-2zM27 29h1v1h-1z"/><path fill="#fa1c25" d="M11 1h1v1h-1zM13 1h1v1h-1zM3 3h1v1h-1zM1 4h1v1h-1zM4 4h1v1h-1zM1 5h1v1h-1zM5 6h1v1h-1zM1 7h1v1h-1zM3 8h2v1h-2zM1 18h1v1h-1zM26 24h2v1h-2zM29 25h1v1h-1zM30 27h1v1h-1zM21 29h1v1h-1zM4 30h1v1h-1zM22 30h1v1h-1zM24 30h1v1h-1z"/><path fill="#412828" d="M14 1h1v1h-1zM22 1h1v1h-1zM14 2h1v1h-1zM8 5h1v1h-1zM29 8h2v1h-2zM29 9h1v1h-1zM26 10h1v1h-1zM22 11h1v1h-1zM10 12h1v1h-1zM13 12h1v1h-1zM10 13h1v1h-1zM18 13h1v1h-1zM6 14h1v1h-1zM10 14h1v1h-1zM13 14h1v1h-1zM18 14h1v1h-1zM12 15h1v1h-1zM18 15h1v1h-1zM5 16h1v1h-1zM22 16h1v1h-1zM5 17h1v1h-1zM22 17h1v1h-1zM12 18h1v1h-1zM17 19h2v1h-2zM5 20h1v1h-1zM1 23h1v1h-1zM4 24h1v1h-1zM30 24h1v1h-1zM13 31h2v1h-2z"/><path fill="#2d3736" d="M15 1h1v1h-1zM10 2h1v1h-1zM21 13h1v1h-1zM2 15h1v1h-1zM29 15h1v1h-1zM21 20h1v1h-1zM14 23h1v1h-1zM28 23h1v1h-1zM25 28h1v1h-1zM27 28h1v1h-1zM18 29h1v1h-1zM27 30h1v1h-1z"/><path fill="#e2131b" d="M16 1h1v1h-1zM16 2h1v1h-1zM5 7h1v1h-1zM2 8h1v1h-1zM1 17h1v1h-1zM30 21h1v1h-1zM27 27h1v1h-1zM20 28h3v1h-3zM28 28h1v1h-1zM5 30h1v1h-1zM21 30h1v1h-1z"/><path fill="#f9161d" d="M17 1h1v1h-1zM11 2h1v1h-1zM13 2h1v1h-1zM12 3h1v1h-1zM4 9h1v1h-1zM1 12h1v1h-1zM30 22h1v1h-1zM28 24h1v1h-1zM30 25h1v1h-1zM26 26h1v1h-1z"/><path fill="#69283e" d="M18 1h1v1h-1zM13 3h1v1h-1zM24 4h1v1h-1zM19 6h2v1h-2zM22 6h2v1h-2zM27 6h1v1h-1zM20 7h1v1h-1zM26 7h1v1h-1zM31 7h1v1h-1zM1 8h1v1h-1zM15 8h1v1h-1zM25 8h2v1h-2zM26 9h1v1h-1zM1 11h1v1h-1zM22 12h1v1h-1zM30 13h1v1h-1zM25 15h2v1h-2zM6 22h1v1h-1zM28 22h1v1h-1zM6 23h1v1h-1zM9 23h1v1h-1zM25 23h1v1h-1zM8 24h1v1h-1zM9 25h1v1h-1zM12 25h1v1h-1zM11 26h1v1h-1zM25 26h1v1h-1zM26 27h1v1h-1zM20 29h1v1h-1zM6 30h1v1h-1z"/><path fill="#839bb5" d="M19 1h1v1h-1zM10 5h1v1h-1zM28 5h1v1h-1zM14 6h1v1h-1zM6 8h1v1h-1zM7 9h1v1h-1zM31 18h1v1h-1zM22 22h2v1h-2zM16 24h1v1h-1zM23 24h1v1h-1zM20 25h1v1h-1zM4 28h1v1h-1z"/><path fill="#727f8e" d="M20 1h1v1h-1zM23 1h1v1h-1zM25 3h1v1h-1zM29 3h1v1h-1zM13 4h1v1h-1zM25 4h1v1h-1zM9 5h1v1h-1zM11 5h3v1h-3zM18 5h1v1h-1zM21 5h1v1h-1zM13 6h1v1h-1zM31 6h1v1h-1zM8 8h1v1h-1zM25 16h1v1h-1zM25 17h1v1h-1zM2 19h1v1h-1zM23 20h1v1h-1zM23 21h1v1h-1zM2 22h1v1h-1zM1 24h1v1h-1zM20 24h1v1h-1zM0 25h1v1h-1zM5 25h1v1h-1zM13 25h1v1h-1zM19 25h1v1h-1zM24 25h1v1h-1zM10 26h1v1h-1zM12 26h1v1h-1zM20 26h1v1h-1zM11 27h1v1h-1zM18 28h1v1h-1zM6 29h1v1h-1z"/><path fill="#675645" d="M21 1h1v1h-1zM28 3h1v1h-1zM29 7h1v1h-1zM31 14h1v1h-1zM27 15h1v1h-1zM24 16h1v1h-1zM23 17h1v1h-1zM29 17h1v1h-1zM17 22h1v1h-1zM7 24h1v1h-1zM6 27h2v1h-2zM6 31h1v1h-1z"/><path fill="#a9bdd8" d="M24 1h1v1h-1zM27 1h1v1h-1zM19 2h1v1h-1zM18 3h1v1h-1zM26 3h1v1h-1zM14 4h1v1h-1zM22 4h1v1h-1zM11 6h1v1h-1zM30 6h1v1h-1zM17 9h1v1h-1zM10 11h1v1h-1zM30 15h1v1h-1zM30 16h1v1h-1zM24 21h2v1h-2zM9 22h1v1h-1zM18 22h1v1h-1zM13 24h1v1h-1zM17 24h1v1h-1zM1 25h1v1h-1zM18 25h1v1h-1zM5 26h1v1h-1zM4 27h1v1h-1zM9 27h2v1h-2zM17 28h1v1h-1zM12 29h1v1h-1zM16 29h1v1h-1zM9 30h1v1h-1z"/><path fill="#a3bad7" d="M25 1h2v1h-2zM27 2h1v1h-1zM20 3h1v1h-1zM23 3h1v1h-1zM19 4h1v1h-1zM21 4h1v1h-1zM29 4h1v1h-1zM30 5h1v1h-1zM10 6h1v1h-1zM12 6h1v1h-1zM23 23h1v1h-1zM2 24h1v1h-1zM1 26h1v1h-1zM4 26h1v1h-1zM1 27h1v1h-1zM18 27h1v1h-1zM2 28h2v1h-2zM7 28h1v1h-1zM11 28h2v1h-2zM8 29h1v1h-1zM8 30h1v1h-1z"/><path fill="#5f4033" d="M15 2h1v1h-1zM5 3h1v1h-1zM23 5h1v1h-1zM19 8h1v1h-1zM25 9h1v1h-1zM5 10h1v1h-1zM18 12h1v1h-1zM2 14h1v1h-1zM5 14h1v1h-1zM12 14h1v1h-1zM24 14h1v1h-1zM5 15h2v1h-2zM23 15h1v1h-1zM9 18h1v1h-1zM8 19h1v1h-1zM12 19h1v1h-1zM6 21h1v1h-1zM14 22h1v1h-1zM7 26h2v1h-2zM10 31h1v1h-1z"/><path fill="#90a0b9" d="M18 2h1v1h-1zM24 3h1v1h-1zM19 5h1v1h-1zM7 7h1v1h-1zM13 7h1v1h-1zM14 8h1v1h-1zM9 10h1v1h-1zM30 14h1v1h-1zM25 20h1v1h-1zM8 23h1v1h-1zM18 23h2v1h-2zM18 24h1v1h-1zM16 25h1v1h-1zM12 27h1v1h-1zM6 28h1v1h-1zM13 28h1v1h-1zM11 29h1v1h-1zM13 29h1v1h-1z"/><path fill="#98aec7" d="M20 2h1v1h-1zM26 2h1v1h-1zM19 3h1v1h-1zM17 4h1v1h-1zM23 4h1v1h-1zM14 5h1v1h-1zM29 5h1v1h-1zM29 6h1v1h-1zM12 8h2v1h-2zM14 13h1v1h-1zM26 16h1v1h-1zM30 19h1v1h-1zM24 22h2v1h-2zM24 23h1v1h-1zM6 26h1v1h-1zM5 27h1v1h-1zM8 27h1v1h-1zM17 27h1v1h-1zM15 29h1v1h-1zM17 29h1v1h-1zM15 30h1v1h-1z"/><path fill="#9bb9d8" d="M21 2h1v1h-1zM26 4h1v1h-1zM6 9h1v1h-1zM2 20h1v1h-1zM24 20h1v1h-1zM2 21h1v1h-1zM3 25h1v1h-1zM16 26h1v1h-1zM21 26h1v1h-1zM16 27h1v1h-1zM7 30h1v1h-1z"/><path fill="#9bb2ce" d="M22 2h4v1h-4zM21 3h2v1h-2zM27 3h1v1h-1zM30 4h1v1h-1zM11 7h2v1h-2zM29 16h1v1h-1zM30 17h1v1h-1zM24 24h1v1h-1zM2 25h1v1h-1zM17 25h1v1h-1zM2 26h2v1h-2zM17 26h3v1h-3zM2 27h2v1h-2zM8 28h3v1h-3zM16 28h1v1h-1zM9 29h2v1h-2z"/><path fill="#997d3e" d="M15 3h1v1h-1zM15 4h1v1h-1zM15 5h1v1h-1zM26 5h1v1h-1zM15 7h1v1h-1zM18 9h1v1h-1zM17 10h1v1h-1zM9 11h1v1h-1zM14 11h1v1h-1zM15 18h1v1h-1zM20 19h1v1h-1zM24 19h1v1h-1zM19 21h1v1h-1zM21 22h1v1h-1zM15 26h1v1h-1z"/><path fill="#828b96" d="M17 3h1v1h-1zM9 6h1v1h-1zM30 7h1v1h-1zM27 16h1v1h-1zM31 16h1v1h-1zM25 18h1v1h-1zM13 19h1v1h-1zM26 20h1v1h-1zM1 21h1v1h-1zM9 21h1v1h-1zM16 23h2v1h-2zM19 24h1v1h-1zM21 25h1v1h-1zM9 26h1v1h-1zM19 27h1v1h-1zM15 28h1v1h-1zM12 30h2v1h-2zM16 30h1v1h-1zM8 31h1v1h-1z"/><path fill="#a7592d" d="M6 4h1v1h-1zM6 5h1v1h-1zM7 6h1v1h-1zM25 6h2v1h-2zM24 7h1v1h-1zM7 14h1v1h-1zM24 18h1v1h-1zM6 19h1v1h-1zM25 19h2v1h-2zM28 19h1v1h-1zM7 20h1v1h-1zM9 20h1v1h-1zM20 20h1v1h-1zM7 21h1v1h-1zM20 22h1v1h-1zM11 23h1v1h-1zM15 23h1v1h-1zM10 24h1v1h-1zM8 25h1v1h-1zM23 27h1v1h-1zM14 28h1v1h-1zM24 28h1v1h-1zM14 29h1v1h-1z"/><path fill="#817a6a" d="M16 4h1v1h-1zM28 4h1v1h-1zM28 6h1v1h-1zM10 7h1v1h-1zM11 8h1v1h-1zM13 9h1v1h-1zM8 10h1v1h-1zM4 11h1v1h-1zM28 16h1v1h-1zM26 17h1v1h-1zM8 22h1v1h-1zM19 22h1v1h-1zM7 23h1v1h-1zM22 23h1v1h-1z"/><path fill="#826146" d="M27 4h1v1h-1zM27 5h1v1h-1zM22 7h1v1h-1zM5 9h1v1h-1zM9 9h1v1h-1zM12 9h1v1h-1zM25 12h1v1h-1zM9 16h1v1h-1zM6 17h1v1h-1zM23 19h1v1h-1zM1 20h1v1h-1zM18 20h1v1h-1zM28 21h1v1h-1zM10 22h1v1h-1zM24 27h1v1h-1zM14 30h1v1h-1z"/><path fill="#cc8026" d="M7 5h1v1h-1zM16 6h1v1h-1zM8 7h1v1h-1zM16 7h1v1h-1zM25 7h1v1h-1zM16 9h1v1h-1zM11 10h1v1h-1zM7 15h1v1h-1zM14 20h1v1h-1zM10 23h1v1h-1zM20 23h1v1h-1zM9 24h1v1h-1zM21 24h2v1h-2zM14 25h2v1h-2zM14 26h1v1h-1zM14 27h1v1h-1z"/><path fill="#a09c67" d="M16 5h1v1h-1zM15 6h1v1h-1zM6 10h2v1h-2zM10 10h1v1h-1zM11 11h1v1h-1zM7 16h1v1h-1zM26 18h1v1h-1zM13 20h1v1h-1zM23 25h1v1h-1zM22 26h1v1h-1zM15 27h1v1h-1z"/><path fill="#a6375e" d="M24 5h1v1h-1zM21 6h1v1h-1zM24 6h1v1h-1zM18 7h1v1h-1zM21 7h1v1h-1zM23 7h1v1h-1zM18 8h1v1h-1zM15 13h1v1h-1zM14 14h2v1h-2zM13 15h3v1h-3zM13 16h3v1h-3zM13 17h3v1h-3zM13 18h2v1h-2zM14 19h1v1h-1zM22 19h1v1h-1zM22 20h1v1h-1zM7 22h1v1h-1zM11 24h2v1h-2zM10 25h2v1h-2zM17 30h1v1h-1z"/><path fill="#d69c18" d="M8 6h1v1h-1zM9 7h1v1h-1zM9 8h2v1h-2zM16 8h1v1h-1zM10 9h2v1h-2zM12 10h1v1h-1zM23 11h1v1h-1zM2 13h1v1h-1zM22 18h2v1h-2zM9 19h1v1h-1zM15 19h1v1h-1zM8 20h1v1h-1zM21 23h1v1h-1zM15 24h1v1h-1zM22 25h1v1h-1zM23 26h1v1h-1z"/><path fill="#cfb60d" d="M27 7h1v1h-1zM16 10h1v1h-1zM21 10h2v1h-2zM5 11h1v1h-1zM3 12h1v1h-1zM9 12h1v1h-1zM5 13h1v1h-1zM19 13h2v1h-2zM28 13h1v1h-1zM22 14h1v1h-1zM28 14h1v1h-1zM3 15h1v1h-1zM21 15h1v1h-1zM3 16h1v1h-1zM3 17h1v1h-1zM19 17h2v1h-2zM5 18h1v1h-1zM3 19h1v1h-1zM27 19h1v1h-1zM3 20h1v1h-1zM15 21h1v1h-1z"/><path fill="#fde906" d="M28 7h1v1h-1zM22 9h3v1h-3zM28 9h1v1h-1zM14 10h2v1h-2zM18 10h2v1h-2zM23 10h1v1h-1zM28 10h1v1h-1zM7 11h1v1h-1zM12 11h1v1h-1zM24 11h1v1h-1zM4 12h1v1h-1zM7 12h1v1h-1zM16 12h1v1h-1zM8 13h1v1h-1zM4 15h1v1h-1zM8 16h1v1h-1zM16 17h1v1h-1zM4 18h1v1h-1zM16 18h1v1h-1zM27 18h1v1h-1zM4 19h1v1h-1zM10 19h1v1h-1zM4 20h1v1h-1zM15 20h1v1h-1zM4 21h1v1h-1zM13 21h1v1h-1zM4 23h1v1h-1z"/><path fill="#bcb57c" d="M17 8h1v1h-1zM14 9h1v1h-1zM10 21h1v1h-1zM3 24h1v1h-1zM14 24h1v1h-1z"/><path fill="#b79f1a" d="M20 8h1v1h-1zM24 8h1v1h-1zM15 9h1v1h-1zM25 10h1v1h-1zM17 11h2v1h-2zM20 11h1v1h-1zM25 11h1v1h-1zM15 12h1v1h-1zM20 12h1v1h-1zM23 12h1v1h-1zM6 13h1v1h-1zM12 13h1v1h-1zM11 14h1v1h-1zM19 14h2v1h-2zM11 15h1v1h-1zM19 15h1v1h-1zM19 16h1v1h-1zM8 17h1v1h-1zM10 17h1v1h-1zM3 18h1v1h-1zM7 18h1v1h-1zM17 18h1v1h-1zM20 18h1v1h-1zM16 20h1v1h-1zM3 21h1v1h-1zM3 22h1v1h-1zM11 22h3v1h-3zM3 23h1v1h-1z"/><path fill="#e9cd10" d="M21 8h1v1h-1zM27 8h1v1h-1zM19 9h1v1h-1zM27 9h1v1h-1zM20 10h1v1h-1zM27 10h1v1h-1zM13 11h1v1h-1zM15 11h1v1h-1zM27 11h1v1h-1zM17 12h1v1h-1zM27 12h1v1h-1zM7 13h1v1h-1zM11 13h1v1h-1zM23 13h2v1h-2zM27 13h1v1h-1zM3 14h1v1h-1zM27 14h1v1h-1zM8 15h1v1h-1zM16 15h1v1h-1zM20 15h1v1h-1zM21 16h1v1h-1zM17 17h1v1h-1zM10 20h1v1h-1zM12 20h1v1h-1z"/><path fill="#ecd207" d="M22 8h2v1h-2zM13 10h1v1h-1zM6 11h1v1h-1zM8 11h1v1h-1zM28 11h1v1h-1zM28 12h1v1h-1zM4 13h1v1h-1zM16 13h1v1h-1zM8 14h1v1h-1zM16 14h1v1h-1zM9 15h1v1h-1zM11 16h1v1h-1zM16 16h1v1h-1zM11 17h1v1h-1zM27 17h2v1h-2zM11 18h1v1h-1zM11 21h1v1h-1z"/><path fill="#feeb0b" d="M28 8h1v1h-1zM20 9h2v1h-2zM24 10h1v1h-1zM16 11h1v1h-1zM19 11h1v1h-1zM5 12h2v1h-2zM8 12h1v1h-1zM12 12h1v1h-1zM19 12h1v1h-1zM24 12h1v1h-1zM3 13h1v1h-1zM9 13h1v1h-1zM4 14h1v1h-1zM9 14h1v1h-1zM17 14h1v1h-1zM23 14h1v1h-1zM17 15h1v1h-1zM22 15h1v1h-1zM4 16h1v1h-1zM17 16h1v1h-1zM20 16h1v1h-1zM4 17h1v1h-1zM7 17h1v1h-1zM6 18h1v1h-1zM10 18h1v1h-1zM19 18h1v1h-1zM5 19h1v1h-1zM11 19h1v1h-1zM16 19h1v1h-1zM19 19h1v1h-1zM11 20h1v1h-1zM19 20h1v1h-1zM12 21h1v1h-1zM14 21h1v1h-1zM4 22h1v1h-1z"/><path fill="#fee61a" d="M11 12h1v1h-1zM17 13h1v1h-1zM28 18h1v1h-1z"/><path fill="#c6ca99" d="M22 13h1v1h-1zM18 21h1v1h-1z"/><path fill="#cf1d2d" d="M23 28h1v1h-1zM24 29h1v1h-1zM25 30h1v1h-1z"/></svg>
